<svg xmlns="http://www.w3.org/2000/svg" xmlns:xlink="http://www.w3.org/1999/xlink" width="500" zoomAndPan="magnify" viewBox="0 0 375 374.999991" height="500" preserveAspectRatio="xMidYMid meet" version="1.0"><defs><clipPath id="a345b3b5c9"><path d="M 212 168 L 239 168 L 239 200 L 212 200 Z M 212 168 " clip-rule="nonzero"/></clipPath><clipPath id="e54706ff8e"><path d="M 199.183594 176.597656 L 225.386719 161.09375 L 238.933594 183.988281 L 212.730469 199.496094 Z M 199.183594 176.597656 " clip-rule="nonzero"/></clipPath><clipPath id="dbdb74fbe9"><path d="M 212.265625 168.855469 L 238.898438 184.011719 L 212.730469 199.496094 Z M 212.265625 168.855469 " clip-rule="nonzero"/></clipPath><clipPath id="4faab9dc8f"><path d="M 312 164 L 339 164 L 339 195 L 312 195 Z M 312 164 " clip-rule="nonzero"/></clipPath><clipPath id="c9bb5f8077"><path d="M 325.246094 156.773438 L 351.714844 171.820312 L 338.570312 194.949219 L 312.097656 179.902344 Z M 325.246094 156.773438 " clip-rule="nonzero"/></clipPath><clipPath id="51d554fafe"><path d="M 338.460938 164.289062 L 338.53125 194.929688 L 312.097656 179.902344 Z M 338.460938 164.289062 " clip-rule="nonzero"/></clipPath></defs><path stroke-linecap="butt" transform="matrix(0, 0.75, -0.75, 0, 53.540816, 165.962509)" fill="none" stroke-linejoin="miter" d="M -0.00209547 17.502339 L 277.216673 17.502339 " stroke="#1e1e1e" stroke-width="35" stroke-opacity="1" stroke-miterlimit="4"/><path stroke-linecap="butt" transform="matrix(-0.499319, 0.559625, -0.559625, -0.499319, 147.644848, 268.297893)" fill="none" stroke-linejoin="miter" d="M 3.713896 17.166557 C 63.562605 30.1621 126.327799 30.162041 192.016832 17.166798 " stroke="#1e1e1e" stroke-width="35" stroke-opacity="1" stroke-miterlimit="4"/><path stroke-linecap="butt" transform="matrix(0, 0.75, -0.75, 0, 152.762294, 165.958936)" fill="none" stroke-linejoin="miter" d="M -0.002539 17.500768 L 232.289143 17.500768 " stroke="#1e1e1e" stroke-width="35" stroke-opacity="1" stroke-miterlimit="4"/><path stroke-linecap="butt" transform="matrix(0, 0.75, -0.75, 0, 197.257388, 153.478233)" fill="none" stroke-linejoin="miter" d="M -0.0022275 17.499436 L 248.930081 17.499436 " stroke="#1e1e1e" stroke-width="35" stroke-opacity="1" stroke-miterlimit="4"/><path stroke-linecap="butt" transform="matrix(0, 0.75, -0.75, 0, 238.819194, 183.851707)" fill="none" stroke-linejoin="miter" d="M -0.000192836 17.498509 L 208.432113 17.498509 " stroke="#1e1e1e" stroke-width="35" stroke-opacity="1" stroke-miterlimit="4"/><path stroke-linecap="butt" transform="matrix(0, 0.75, -0.75, 0, 338.473137, 180.311062)" fill="none" stroke-linejoin="miter" d="M 0.00191765 17.500642 L 257.699851 17.500642 " stroke="#1e1e1e" stroke-width="35" stroke-opacity="1" stroke-miterlimit="4"/><path stroke-linecap="butt" transform="matrix(0.659117, 0.357862, -0.357862, 0.659117, 236.201166, 182.493444)" fill="none" stroke-linejoin="miter" d="M -0.00167177 17.499936 L 75.098449 17.499196 " stroke="#1e1e1e" stroke-width="35" stroke-opacity="1" stroke-miterlimit="4"/><path stroke-linecap="butt" transform="matrix(0.651094, -0.372259, 0.372259, 0.651094, 260.244772, 209.507096)" fill="none" stroke-linejoin="miter" d="M -0.00246752 17.500292 L 80.649187 17.500127 " stroke="#1e1e1e" stroke-width="35" stroke-opacity="1" stroke-miterlimit="4"/><path fill="#1e1e1e" d="M 242.828125 103.496094 C 202.855469 92.566406 162.769531 93.03125 122.394531 103.738281 C 115.878906 80.898438 105.796875 59.523438 93.921875 39.011719 C 88.980469 40 86.152344 38.992188 84.734375 35.863281 C 83.46875 33.078125 84.382812 29.730469 86.878906 28 C 89.34375 26.292969 92.59375 26.507812 94.785156 28.519531 C 97.339844 30.871094 97.425781 33.996094 94.894531 38.257812 C 106.367188 50.226562 118.082031 61.945312 134.753906 66.726562 C 146.925781 70.222656 157.074219 66.941406 165.066406 57.132812 C 171.84375 48.816406 175.492188 38.992188 178.421875 28.859375 C 179.492188 25.167969 180.320312 21.402344 181.238281 17.746094 C 175.15625 14.359375 173.300781 11.183594 174.566406 6.636719 C 175.660156 2.707031 179.234375 0.09375 183.222656 0.300781 C 187.105469 0.503906 190.5 3.441406 191.1875 7.183594 C 192.019531 11.71875 189.941406 15.007812 184.339844 17.582031 C 185.277344 21.300781 186.148438 25.128906 187.214844 28.898438 C 189.851562 38.25 193.25 47.28125 199.035156 55.214844 C 205.023438 63.433594 212.804688 68.613281 223.292969 68.117188 C 229.582031 67.820312 235.589844 65.828125 241.121094 62.753906 C 252.519531 56.414062 262.058594 47.820312 270.808594 38.027344 C 270.402344 37.328125 269.964844 36.664062 269.609375 35.960938 C 268.246094 33.261719 268.878906 30.101562 271.144531 28.1875 C 273.3125 26.355469 276.515625 26.210938 278.84375 27.835938 C 281.28125 29.539062 282.214844 32.65625 281.113281 35.441406 C 280.042969 38.148438 277.0625 40.082031 274.222656 39.222656 C 271.972656 38.546875 271.316406 39.570312 270.457031 41.113281 C 263.636719 53.339844 256.980469 65.636719 252.058594 78.78125 C 248.996094 86.953125 245.949219 95.132812 242.828125 103.496094 Z M 242.828125 103.496094 " fill-opacity="1" fill-rule="nonzero"/><path fill="#1e1e1e" d="M 126.128906 121.921875 C 125.507812 118.300781 124.933594 114.964844 124.257812 111.050781 C 163.292969 100.652344 202.164062 99.988281 241.410156 110.820312 C 241.027344 112.972656 240.699219 114.746094 240.390625 116.527344 C 240.089844 118.238281 239.820312 119.949219 239.515625 121.761719 C 201.699219 112.132812 164.007812 112.546875 126.128906 121.921875 Z M 126.128906 121.921875 " fill-opacity="1" fill-rule="nonzero"/><path fill="#1e1e1e" d="M 141.6875 39.347656 C 146.066406 46.601562 150.421875 53.804688 154.84375 61.113281 C 151.644531 64.304688 142.410156 65.824219 137.960938 63.710938 C 138.742188 55.628906 139.511719 47.617188 140.269531 39.804688 C 134.929688 37.328125 133.476562 35.550781 133.914062 32.425781 C 134.265625 29.878906 136.242188 27.84375 138.761719 27.425781 C 141.28125 27.007812 143.800781 28.300781 144.949219 30.597656 C 146.3125 33.328125 145.5 35.867188 141.6875 39.347656 Z M 141.6875 39.347656 " fill-opacity="1" fill-rule="nonzero"/><path fill="#1e1e1e" d="M 223.886719 39.375 C 219.957031 35.609375 219.230469 33.203125 220.746094 30.402344 C 221.957031 28.175781 224.589844 26.941406 227.0625 27.453125 C 229.667969 27.992188 231.566406 30.25 231.671875 32.941406 C 231.800781 36.132812 230.195312 37.941406 225.34375 39.535156 C 226.101562 47.464844 226.878906 55.554688 227.65625 63.722656 C 222.902344 65.617188 215.261719 64.492188 210.679688 61.222656 C 215.128906 53.878906 219.554688 46.546875 223.886719 39.375 Z M 223.886719 39.375 " fill-opacity="1" fill-rule="nonzero"/><path stroke-linecap="butt" transform="matrix(-0.75, 0, 0, -0.75, 238.634389, 156.679149)" fill="none" stroke-linejoin="miter" d="M 0.00210177 17.499283 L 149.397945 17.499283 " stroke="#1e1e1e" stroke-width="35" stroke-opacity="1" stroke-miterlimit="4"/><g clip-path="url(#a345b3b5c9)"><g clip-path="url(#e54706ff8e)"><g clip-path="url(#dbdb74fbe9)"><path fill="#1e1e1e" d="M 199.183594 176.597656 L 225.386719 161.09375 L 238.933594 183.988281 L 212.730469 199.496094 Z M 199.183594 176.597656 " fill-opacity="1" fill-rule="nonzero"/></g></g></g><g clip-path="url(#4faab9dc8f)"><g clip-path="url(#c9bb5f8077)"><g clip-path="url(#51d554fafe)"><path fill="#1e1e1e" d="M 325.246094 156.773438 L 351.714844 171.820312 L 338.570312 194.949219 L 312.097656 179.902344 Z M 325.246094 156.773438 " fill-opacity="1" fill-rule="nonzero"/></g></g></g></svg>