<?xml version="1.0" encoding="UTF-8"?>
<svg version="1.1" xmlns="http://www.w3.org/2000/svg" width="1920" height="1080">
<path d="M0 0 C20.79 0 41.58 0 63 0 C64 1 64 1 64.1241985 2.99009901 C64.12381878 3.87370822 64.12343906 4.75731743 64.12304783 5.66770267 C64.12503888 6.68336184 64.12702993 7.699021 64.12908131 8.74545771 C64.12616847 9.87481082 64.12325563 11.00416393 64.12025452 12.16773987 C64.12110894 13.35690803 64.12196337 14.54607619 64.12284368 15.77127975 C64.12421188 19.08690015 64.12106438 22.40246225 64.11606562 25.71807563 C64.11176445 29.28796191 64.11320731 32.85784624 64.1139679 36.42773438 C64.11449334 42.61774183 64.11134438 48.80773879 64.10573006 54.99774361 C64.09761786 63.94755337 64.09500013 72.89735802 64.09374207 81.84717106 C64.0915511 96.3661345 64.08488982 110.88509234 64.07543945 125.40405273 C64.06626648 139.51147432 64.05918508 153.61889439 64.05493164 167.72631836 C64.05466892 168.59527135 64.05440619 169.46422434 64.05413551 170.35950924 C64.05283051 174.71860333 64.05156679 179.07769743 64.05032361 183.43679154 C64.03994962 219.62453165 64.0223301 255.81226539 64 292 C66.80750284 289.19482793 69.60983287 286.38617779 72.3828125 283.546875 C78.82438138 276.9945259 85.24684968 270.72380672 92.46875 265.03125 C95.01593421 262.98721329 97.41189734 260.83854271 99.8125 258.625 C105.937722 253.0644469 112.44526009 248.03597705 119 243 C119.78874512 242.3920459 120.57749023 241.7840918 121.39013672 241.15771484 C133.43675434 231.88165739 145.60510341 222.80504366 158 214 C158.72316406 213.48356934 159.44632813 212.96713867 160.19140625 212.43505859 C171.4428244 204.4107337 182.88427701 196.67563305 194.375 189 C195.03654083 188.5572171 195.69808167 188.1144342 196.37966919 187.65823364 C197.6588296 186.8028354 198.93987862 185.95025227 200.22310925 185.10097218 C201.5657121 184.20277717 202.89930171 183.29084354 204.22010326 182.36088657 C208.2139826 179.60683685 212.06436015 177.49040361 216.57537842 175.69137573 C223.06730998 172.84269893 228.68219509 169.75832368 233 164 C236.81678359 153.08530469 235.7665116 140.85564952 235.43259573 129.46411371 C235.32241525 124.90533638 235.33824703 120.34693886 235.34011841 115.78707886 C235.32480713 107.17196087 235.19789655 98.56233211 235.02980149 89.94898784 C234.84379633 80.13540886 234.78382126 70.32228684 234.73387694 60.50721955 C234.6284334 40.33479659 234.34991824 20.16976561 234 0 C254.46 0 274.92 0 296 0 C296 112.86 296 225.72 296 342 C289.07 345.96 289.07 345.96 282 350 C278.29083226 352.3972025 274.63114665 354.80566098 271 357.3125 C270.05866211 357.95912598 269.11732422 358.60575195 268.14746094 359.27197266 C257.50222125 366.64413848 247.41290355 374.41840034 237.98828125 383.3203125 C236 385 236 385 233 386 C233.33 336.83 233.66 287.66 234 237 C217.02428421 248.31714386 200.20145438 259.62878076 184 272 C182.989375 272.76570313 181.97875 273.53140625 180.9375 274.3203125 C163.90424707 287.27410661 147.35079055 300.88957564 131.67944336 315.46411133 C130.45239419 316.58627535 129.21163148 317.69349593 127.96313477 318.79174805 C120.47955039 325.39995009 113.43202958 332.41586367 106.38549805 339.48413086 C104.30955574 341.56545189 102.22829578 343.64134813 100.14648438 345.71679688 C98.80176248 347.06217938 97.45735071 348.40787194 96.11328125 349.75390625 C95.50269363 350.36246964 94.89210602 350.97103302 94.26301575 351.59803772 C90.52066988 355.36045116 86.96840662 359.24426383 83.50242615 363.26289368 C81.63089452 365.42676005 79.69104004 367.52348028 77.75 369.625 C73.20397134 374.6633228 69.03688247 379.94466668 64.8828125 385.3046875 C62.96881394 387.77187992 61.02732797 390.21225895 59.0546875 392.6328125 C52.1137344 401.15533488 45.62242387 409.9098938 39.39648438 418.96826172 C38.51107375 420.25644131 37.62216583 421.54222976 36.72851562 422.82470703 C23.13251 442.34843974 10.19285501 463.57744944 2 486 C1.34 486 0.68 486 0 486 C0 325.62 0 165.24 0 0 Z " fill="#000000" transform="translate(604,382)"/>
<path d="M0 0 C11.25741107 5.62870553 11.25741107 5.62870553 15.4453125 8.56640625 C16.36924805 9.21085693 17.29318359 9.85530762 18.24511719 10.51928711 C19.19547852 11.19354736 20.14583984 11.86780762 21.125 12.5625 C22.12692383 13.26705322 23.12884766 13.97160645 24.16113281 14.69750977 C36.44998061 23.37702499 48.47717484 32.32016272 60 42 C60.5165918 42.4316748 61.03318359 42.86334961 61.56542969 43.30810547 C68.06746038 48.74318572 74.47280377 54.26160824 80.74609375 59.9609375 C82.7688269 61.79086247 84.81369435 63.58881728 86.875 65.375 C97.5641427 74.72167409 107.70666702 84.54722735 117.72973633 94.59936523 C119.95474852 96.82979048 122.18512772 99.05475018 124.41601562 101.27929688 C125.84927947 102.71322075 127.28223351 104.14745437 128.71484375 105.58203125 C129.37322739 106.23839066 130.03161102 106.89475006 130.70994568 107.57099915 C134.35441854 111.23395404 137.75663336 114.9766763 141 119 C148.19847194 113.06545729 154.6296626 106.42469625 161.17382812 99.78710938 C165.69374283 95.22791953 170.24459453 90.80067943 175.12133789 86.62475586 C178.3355877 83.84492058 181.4079269 80.91412657 184.5 78 C189.58595671 73.23351137 194.69590026 68.52408507 200 64 C201.0210281 63.12522728 202.04184071 62.25020301 203.0625 61.375 C204.83478111 59.85546862 206.60752667 58.33649894 208.38183594 56.81933594 C211.47981876 54.16882138 214.56921552 51.50940927 217.640625 48.828125 C226.9486494 40.70380875 236.42683077 32.80957481 246 25 C247.03157227 24.15622803 247.03157227 24.15622803 248.08398438 23.29541016 C252.70869428 19.51285421 257.3471591 15.74789537 262 12 C263.00232666 11.19127441 263.00232666 11.19127441 264.02490234 10.36621094 C265.97026746 8.8006933 267.92144239 7.24277672 269.875 5.6875 C270.75901489 4.97557495 270.75901489 4.97557495 271.66088867 4.24926758 C275.76930531 1 275.76930531 1 278 1 C278 157.75 278 314.5 278 476 C276.32185431 473.48278146 275.44208795 471.71256308 274.4765625 468.921875 C267.90628053 450.51169889 259.48510129 432.87979487 248 417 C247.2237168 415.89040125 246.44906357 414.77966091 245.67578125 413.66796875 C237.2308878 401.59664995 228.0835067 390.12705478 218.5078125 378.9375 C217.26644531 377.4834375 217.26644531 377.4834375 216 376 C215.13567761 375.14282064 214.27135523 374.28564129 213.38084126 373.4024868 C210.10219564 369.42799381 210.31540604 365.59800417 210.39872742 360.62271118 C210.39231923 359.21844645 210.39231923 359.21844645 210.38578159 357.78581274 C210.37755463 354.65310638 210.40503245 351.52174288 210.43237305 348.38916016 C210.43378358 346.14199861 210.43299145 343.89483476 210.43016052 341.64767456 C210.42872517 335.54884906 210.45813493 329.45051462 210.49303031 323.3518033 C210.52427359 316.97767402 210.52722297 310.60353364 210.53315735 304.2293396 C210.54693529 293.53121437 210.57817228 282.83328321 210.62280273 272.13525391 C210.66871838 261.11768493 210.70410042 250.10016491 210.7253418 239.08251953 C210.72665541 238.40306088 210.72796903 237.72360223 210.72932246 237.02355392 C210.73584778 233.61480979 210.74216629 230.20606531 210.74838197 226.7973206 C210.80019094 198.53142174 210.88860755 170.26572208 211 142 C209.074606 143.75632457 207.15038278 145.51390314 205.22680664 147.2722168 C204.41390041 148.01338367 204.41390041 148.01338367 203.58457184 148.76952362 C199.71171721 152.31214696 195.98079015 155.93745681 192.4375 159.8125 C191.90213623 160.39378662 191.36677246 160.97507324 190.81518555 161.57397461 C185.66186983 167.24391728 180.93287211 173.21164418 176.29541016 179.30615234 C175.03745924 180.95101918 173.76248401 182.58087767 172.48046875 184.20703125 C162.93114536 196.36310238 154.32724603 209.06495931 146.52758789 222.4128418 C146.09438232 223.142854 145.66117676 223.87286621 145.21484375 224.625 C144.83448975 225.27726563 144.45413574 225.92953125 144.06225586 226.6015625 C143.71171143 227.06304688 143.36116699 227.52453125 143 228 C142.34 228 141.68 228 141 228 C139.78588867 226.52563477 139.78588867 226.52563477 138.41796875 224.44140625 C137.90459961 223.67119141 137.39123047 222.90097656 136.86230469 222.10742188 C136.30961914 221.26759766 135.75693359 220.42777344 135.1875 219.5625 C126.18316463 206.13932366 116.37678301 193.39099392 106 181 C105.20464844 180.01902344 104.40929688 179.03804687 103.58984375 178.02734375 C96.8367534 169.814497 89.45011412 162.26174235 81.9375 154.75 C81.42064636 154.23223999 80.90379272 153.71447998 80.37127686 153.18103027 C78.88516221 151.69521055 77.39481853 150.21380364 75.90234375 148.734375 C75.03085693 147.87038086 74.15937012 147.00638672 73.26147461 146.11621094 C70.9907269 143.87574342 70.9907269 143.87574342 68 142 C68 213.61 68 285.22 68 359 C64.4797275 357.82657583 64.0617354 356.96889897 62 354 C57.71829449 348.34171276 52.63637805 344.2598847 47 340 C46.01773437 339.24203125 45.03546875 338.4840625 44.0234375 337.703125 C30.31022131 327.37772946 14.97130773 319.31739318 0 311 C0 208.37 0 105.74 0 0 Z " fill="#000000" transform="translate(1023,382)"/>
<path d="M0 0 C88.44 0 176.88 0 268 0 C268 21.12 268 42.24 268 64 C236.32 64 204.64 64 172 64 C172 172.24 172 280.48 172 392 C160.12 393.98 160.12 393.98 148 396 C133.28935098 399.77981954 119.78868577 404.72496803 107 413 C106.01 413 105.02 413 104 413 C104.33 297.83 104.66 182.66 105 64 C70.35 64 35.7 64 0 64 C0 42.88 0 21.76 0 0 Z " fill="#000000" transform="translate(822,298)"/>
<path d="M0 0 C2.16796875 0.41015625 2.16796875 0.41015625 4.79296875 2.47265625 C6.58062173 6.29173307 6.19759621 8.36519123 5.16796875 12.41015625 C4.7729718 13.05329269 4.37797485 13.69642914 3.9710083 14.35905457 C2.90193949 16.40896735 2.90193949 16.40896735 3.96112061 18.46064758 C4.45058167 19.18817734 4.94004272 19.91570709 5.44433594 20.6652832 C6.26704987 21.91357658 6.26704987 21.91357658 7.10638428 23.18708801 C8.02632172 24.52920601 8.02632172 24.52920601 8.96484375 25.8984375 C9.58764221 26.83382858 10.21044067 27.76921967 10.85211182 28.73295593 C12.85915741 31.73982192 14.88805563 34.73119267 16.91796875 37.72265625 C18.24105548 39.69627951 19.56268719 41.67087904 20.8828125 43.64648438 C23.45011127 47.48336963 26.025793 51.31436861 28.61035156 55.13964844 C31.69812426 59.70981571 34.76808058 64.29144208 37.82421875 68.8828125 C38.20269958 69.45131424 38.58118042 70.01981598 38.97113037 70.60554504 C40.03692622 72.2069603 41.10244954 73.80855692 42.16796875 75.41015625 C43.39891712 77.25712499 44.63025218 79.1038355 45.8616333 80.95051575 C46.66247384 82.15188066 47.46252544 83.35377153 48.26220703 84.5559082 C50.79650743 88.3652258 53.34904418 92.16177597 55.91015625 95.953125 C56.55243164 96.90751465 57.19470703 97.8619043 57.85644531 98.84521484 C59.13335978 100.74255649 60.41388147 102.63747614 61.69824219 104.52978516 C62.27864258 105.39394043 62.85904297 106.2580957 63.45703125 107.1484375 C63.97990723 107.92227783 64.5027832 108.69611816 65.04150391 109.4934082 C66.16796875 111.41015625 66.16796875 111.41015625 66.16796875 113.41015625 C75.34750958 107.87929889 84.47038933 102.30317663 93.35766602 96.31176758 C98.42681482 92.89495291 103.53867533 89.5484514 108.66796875 86.22265625 C109.50078369 85.68229736 110.33359863 85.14193848 111.19165039 84.58520508 C112.93547206 83.45382348 114.67937047 82.32256015 116.42333984 81.19140625 C124.13330313 76.18767986 131.83188502 71.16676237 139.52246094 66.13330078 C141.99284483 64.52422275 144.47293231 62.93154078 146.95703125 61.34375 C148.33995809 60.44939552 149.72277916 59.55487748 151.10546875 58.66015625 C151.73235596 58.26610596 152.35924316 57.87205566 153.00512695 57.46606445 C154.87119169 56.28479985 154.87119169 56.28479985 157.16796875 54.41015625 C157.16796875 53.42015625 157.16796875 52.43015625 157.16796875 51.41015625 C157.39243022 47.29502928 157.59082086 45.08915377 160.29296875 41.91015625 C164.1394517 39.90329558 166.05343416 40.13839101 170.16796875 41.41015625 C172.66796875 43.53515625 172.66796875 43.53515625 174.16796875 46.41015625 C174.24383097 50.73430251 173.869665 52.64998531 170.91796875 55.84765625 C167.92783 57.54659872 166.51605672 57.55059618 163.16796875 57.41015625 C162.99803909 58.06246216 162.82810944 58.71476807 162.6530304 59.38684082 C160.7445642 66.56371815 158.52301976 73.59408281 156.1484375 80.62890625 C155.76738358 81.76686646 155.38632965 82.90482666 154.99372864 84.07727051 C153.78386289 87.68920853 152.56997886 91.29977751 151.35546875 94.91015625 C150.15216386 98.49213227 148.94981516 102.07442191 147.74934387 105.65734863 C147.00637842 107.87432753 146.26181871 110.09077321 145.5151825 112.30651855 C142.27294767 121.9727647 139.24002676 131.68197255 136.16796875 141.41015625 C45.08796875 141.41015625 -45.99203125 141.41015625 -139.83203125 141.41015625 C-145.11203125 125.24015625 -150.39203125 109.07015625 -155.83203125 92.41015625 C-160.93222184 77.19870656 -160.93222184 77.19870656 -166.07617188 62.00244141 C-166.83203125 59.41015625 -166.83203125 59.41015625 -166.83203125 56.41015625 C-167.90453125 56.49265625 -168.97703125 56.57515625 -170.08203125 56.66015625 C-173.83203125 56.41015625 -173.83203125 56.41015625 -176.26953125 54.91015625 C-178.47302427 51.38456741 -178.62872409 48.46001153 -177.83203125 44.41015625 C-176.33203125 41.91015625 -176.33203125 41.91015625 -173.83203125 40.41015625 C-169.81104848 39.61914325 -166.86792098 39.78862241 -163.33203125 41.91015625 C-161.12025153 45.59645579 -161.4878185 48.14191817 -161.83203125 52.41015625 C-162.16203125 53.07015625 -162.49203125 53.73015625 -162.83203125 54.41015625 C-162.14238281 54.65121094 -161.45273437 54.89226562 -160.7421875 55.140625 C-157.30779779 56.6388487 -154.3431199 58.60953811 -151.26953125 60.72265625 C-149.92914683 61.63003204 -148.5879587 62.53622137 -147.24609375 63.44140625 C-146.53227539 63.92351562 -145.81845703 64.405625 -145.08300781 64.90234375 C-141.13023028 67.55010449 -137.13688453 70.1351135 -133.14453125 72.72265625 C-132.30140381 73.26962158 -131.45827637 73.81658691 -130.58959961 74.38012695 C-128.8641059 75.49929115 -127.13843768 76.61818633 -125.41259766 77.73681641 C-122.04645502 79.9195545 -118.68274807 82.10602627 -115.31933594 84.29296875 C-113.66264302 85.37011185 -112.0057423 86.44693539 -110.34863281 87.5234375 C-106.09117827 90.28936324 -101.83641278 93.05929659 -97.5859375 95.8359375 C-88.41075441 101.82448388 -79.21120785 107.74499666 -69.83203125 113.41015625 C-69.59484375 112.72695312 -69.35765625 112.04375 -69.11328125 111.33984375 C-67.56248986 107.79382685 -65.51028451 104.71459424 -63.33203125 101.53515625 C-62.52966387 100.35045274 -61.72759855 99.16554463 -60.92578125 97.98046875 C-60.45809326 97.29154541 -59.99040527 96.60262207 -59.50854492 95.89282227 C-57.01278555 92.19697589 -54.5428766 88.48396547 -52.070755 84.77229309 C-49.02408725 80.1980879 -45.97380328 75.62631953 -42.92098999 71.05621338 C-40.5561077 67.51565532 -38.19246128 63.97427292 -35.82885742 60.43286133 C-34.62842961 58.63473028 -33.42758724 56.83687591 -32.22631836 55.03930664 C-23.6638649 42.22545875 -15.19881086 29.35266886 -6.83203125 16.41015625 C-7.49332031 15.49621094 -8.15460938 14.58226562 -8.8359375 13.640625 C-10.83203125 10.41015625 -10.83203125 10.41015625 -10.76953125 6.72265625 C-9.00166944 0.47621118 -6.08765766 -0.2284113 0 0 Z " fill="#000000" transform="translate(962.83203125,137.58984375)"/>
<path d="M0 0 C4.4297642 0.79102932 5.89210172 1.98974785 8.5 5.625 C9.29134016 10.37304095 8.0058408 12.67963363 5.5 16.625 C5.9846875 17.27984375 6.469375 17.9346875 6.96875 18.609375 C11.13265137 24.27868686 15.15011257 30.00903601 18.99609375 35.8984375 C21.06077903 39.02003437 23.2304387 42.05935193 25.41015625 45.1015625 C26.10230225 46.08084717 26.79444824 47.06013184 27.50756836 48.0690918 C28.90667993 50.04701259 30.32007204 52.01491733 31.74829102 53.97192383 C32.39080811 54.8873999 33.0333252 55.80287598 33.6953125 56.74609375 C34.28328613 57.5652124 34.87125977 58.38433105 35.47705078 59.22827148 C36.5 61.625 36.5 61.625 35.83789062 64.18066406 C34.61338424 66.41784617 33.35930076 68.52390706 31.8984375 70.61328125 C31.16367187 71.67192383 31.16367187 71.67192383 30.4140625 72.75195312 C29.90617188 73.47318359 29.39828125 74.19441406 28.875 74.9375 C28.1015625 76.04834961 28.1015625 76.04834961 27.3125 77.18164062 C26.04605274 78.99922697 24.77514241 80.81350838 23.5 82.625 C19.82531382 81.28070258 16.76341086 79.6245915 13.5234375 77.4375 C12.605625 76.82132812 11.6878125 76.20515625 10.7421875 75.5703125 C9.79601562 74.92835938 8.84984375 74.28640625 7.875 73.625 C6.92109375 72.98304688 5.9671875 72.34109375 4.984375 71.6796875 C3.21782566 70.49037682 1.45254783 69.29917371 -0.31103516 68.10546875 C-2.03621718 66.93867154 -3.76708296 65.78027802 -5.5 64.625 C-5.82249451 62.77391052 -5.82249451 62.77391052 -5.73999023 60.55639648 C-5.71258759 59.74927216 -5.68518494 58.94214783 -5.6569519 58.11056519 C-5.41642658 54.30149147 -5.08306844 50.51573914 -4.66015625 46.72265625 C-4.57374374 45.91888046 -4.48733124 45.11510468 -4.39830017 44.28697205 C-4.21651552 42.60699486 -4.03237489 40.92727103 -3.84594727 39.24780273 C-3.56061049 36.67043255 -3.28469795 34.09217051 -3.00976562 31.51367188 C-2.83128408 29.87493947 -2.65226713 28.23626526 -2.47265625 26.59765625 C-2.3491555 25.44149559 -2.3491555 25.44149559 -2.22315979 24.26197815 C-1.61526849 18.85553697 -1.61526849 18.85553697 -0.5 16.625 C-1.263125 16.5425 -2.02625 16.46 -2.8125 16.375 C-5.5 15.625 -5.5 15.625 -7.3125 13.9375 C-8.90188959 10.84237291 -9.06159999 9.06479993 -8.5 5.625 C-5.89210172 1.98974785 -4.4297642 0.79102932 0 0 Z " fill="#000000" transform="translate(866.5,157.375)"/>
<path d="M0 0 C2.5 1.5 2.5 1.5 4 4 C4.5474451 6.7828459 4.57532907 9.22019222 4 12 C2.1875 14.5 2.1875 14.5 0 16 C-0.99 16 -1.98 16 -3 16 C-2.505 16.99 -2.505 16.99 -2 18 C-1.6328691 20.65829621 -1.31226752 23.30532299 -1.02734375 25.97265625 C-0.8962899 27.16827431 -0.8962899 27.16827431 -0.7625885 28.38804626 C-0.57830818 30.08002023 -0.39602684 31.77221292 -0.21557617 33.46459961 C0.05886866 36.02857457 0.3424636 38.59141949 0.62695312 41.15429688 C0.80524797 42.80202278 0.98299898 44.44980765 1.16015625 46.09765625 C1.24451431 46.85426041 1.32887238 47.61086456 1.41578674 48.39039612 C1.64643305 50.59206117 1.82888816 52.79297758 2 55 C2.08469543 55.7875618 2.16939087 56.5751236 2.25665283 57.3865509 C2.41466134 59.71738667 2.44635192 61.70589908 2 64 C-0.04091499 66.23050707 -1.33423963 67.32957737 -3.8359375 68.81640625 C-4.43048737 69.20320053 -5.02503723 69.58999481 -5.63760376 69.98851013 C-7.53247983 71.21039734 -9.45202818 72.38545049 -11.375 73.5625 C-12.66065362 74.38586885 -13.94453274 75.21201552 -15.2265625 76.04101562 C-24.54797005 82 -24.54797005 82 -27 82 C-29.50148445 79.13220873 -31.58426549 75.93799685 -33.75 72.8125 C-34.37777344 71.94818359 -35.00554688 71.08386719 -35.65234375 70.19335938 C-36.52826172 68.93168945 -36.52826172 68.93168945 -37.421875 67.64453125 C-37.96424805 66.87471924 -38.50662109 66.10490723 -39.06542969 65.31176758 C-40 63 -40 63 -39.28637695 60.40405273 C-37.56424706 57.18564069 -35.54238846 54.22420701 -33.4375 51.25 C-32.46034862 49.84546159 -31.48383244 48.44048114 -30.5078125 47.03515625 C-29.96157227 46.25156738 -29.41533203 45.46797852 -28.85253906 44.66064453 C-25.54660866 39.91261744 -22.2537095 35.15600114 -18.98049927 30.38537598 C-18.20267361 29.25468049 -17.42213703 28.12584506 -16.6388855 26.99890137 C-15.53019443 25.40343991 -14.43091945 23.80144778 -13.33203125 22.19921875 C-12.68983643 21.26940186 -12.0476416 20.33958496 -11.38598633 19.3815918 C-9.74850808 17.02710685 -9.74850808 17.02710685 -10 14 C-10.66 13.34 -11.32 12.68 -12 12 C-12.66666667 5.11111111 -12.66666667 5.11111111 -10.5 1.5 C-6.96411027 -0.62153384 -4.02098277 -0.791013 0 0 Z " fill="#000000" transform="translate(1059,158)"/>
</svg>
