<?xml version="1.0" encoding="UTF-8"?>
<svg version="1.1" xmlns="http://www.w3.org/2000/svg" width="3181" height="2000">
<path d="M0 0 C38.28 0 76.56 0 116 0 C116.33 178.2 116.66 356.4 117 540 C123.6 533.4 130.2 526.8 137 520 C139.64 517.69 142.28 515.38 145 513 C146.30833202 511.7947856 147.6094692 510.58155841 148.89453125 509.3515625 C149.53438965 508.74328613 150.17424805 508.13500977 150.83349609 507.50830078 C151.48656738 506.88681152 152.13963867 506.26532227 152.8125 505.625 C158.21084835 500.52231427 163.68243976 495.66951816 169.4921875 491.0390625 C172.07603034 488.93818094 174.5399352 486.74413435 177 484.5 C182.1750993 479.79536428 187.56141197 475.39481861 193 471 C194.21942517 470.00082343 195.43813577 469.00077435 196.65625 468 C204.26088485 461.76473122 211.95796338 455.67783285 219.7902832 449.73095703 C224.16784281 446.40687439 228.50543717 443.039768 232.8125 439.625 C246.83567637 428.54526181 261.2711068 418.00413874 275.79101562 407.58837891 C278.00570366 405.99589876 280.21465684 404.39578317 282.421875 402.79296875 C292.63491029 395.37990159 302.93383347 388.09805758 313.29052734 380.88720703 C316.18108058 378.87387341 319.06911443 376.85695692 321.95703125 374.83984375 C323.97124863 373.43474454 325.98556953 372.02979371 328 370.625 C329.3780481 369.66243286 329.3780481 369.66243286 330.78393555 368.68041992 C337.46333777 364.02915439 344.21894099 359.50135919 351 355 C353.09033381 353.6035979 355.18016926 352.20644952 357.26953125 350.80859375 C378.24279198 336.79139285 399.31992806 322.94473458 420.65576172 309.48339844 C422.21934525 308.49398649 423.77829424 307.49721247 425.33251953 306.49316406 C426.40735596 305.80432129 426.40735596 305.80432129 427.50390625 305.1015625 C428.13240479 304.69502441 428.76090332 304.28848633 429.40844727 303.86962891 C431 303 431 303 433 303 C433 203.01 433 103.02 433 0 C470.29 0 507.58 0 546 0 C547.14862028 20.67516504 547.14862028 20.67516504 547.12304783 29.80392647 C547.12420167 30.86135711 547.12535552 31.91878775 547.12654433 33.00826174 C547.12915867 36.49698978 547.12473236 39.9856702 547.12025452 43.47439575 C547.12069128 46.02255828 547.12156813 48.57072077 547.12284368 51.11888301 C547.12460515 56.63066111 547.12329975 62.14242489 547.11920547 67.65420151 C547.11313463 75.84982566 547.11287297 84.04544305 547.11374746 92.24106904 C547.11505711 106.03186065 547.11173619 119.82264744 547.10573006 133.61343765 C547.09980285 147.25813954 547.09596206 160.90283941 547.09487724 174.54754257 C547.0948085 175.39752218 547.09473976 176.24750179 547.09466894 177.12323836 C547.09433058 181.44026468 547.09402921 185.757291 547.09374207 190.07431732 C547.09164446 220.61188348 547.08491494 251.14944703 547.07543945 281.68701172 C547.06624768 311.34456366 547.05916766 341.00211489 547.05493164 370.65966797 C547.05473435 372.03214226 547.05473435 372.03214226 547.05453308 373.4323433 C547.0532145 382.62139769 547.05193869 391.81045209 547.05069422 400.99950649 C547.04815835 419.71686464 547.04533709 438.43422273 547.04234314 457.15158081 C547.04220585 458.01207979 547.04206856 458.87257877 547.04192711 459.75915348 C547.03273424 517.17277008 547.01686909 574.5863852 547 632 C546.45331407 632.2853168 545.90662815 632.5706336 545.34337598 632.86459637 C542.84279219 634.17105654 540.34372912 635.48040022 537.84468079 636.78979492 C536.98467862 637.23856743 536.12467645 637.68733994 535.23861361 638.14971161 C529.31986237 641.25437566 523.62750705 644.54050117 518.10546875 648.3125 C516.89713127 649.12134644 516.89713127 649.12134644 515.66438293 649.9465332 C513.16607713 651.62229066 510.67682767 653.31094435 508.1875 655 C506.51422158 656.12321517 504.84039416 657.24561293 503.16601562 658.3671875 C480.55930257 673.54949112 459.03069046 689.67447613 439.0859375 708.2578125 C437 710 437 710 433 712 C432.67 621.25 432.34 530.5 432 437 C402.26735932 456.6752536 402.26735932 456.6752536 373 477 C371.51823135 478.05338848 370.03646048 479.10677385 368.5546875 480.16015625 C356.84382759 488.52105905 345.41012864 497.23514268 334 506 C332.75800729 506.95077534 331.51584249 507.90132596 330.2734375 508.8515625 C315.86341863 519.88566605 301.66969393 531.15127942 287.84228516 542.90966797 C284.3675864 545.85980597 280.85542205 548.75668229 277.3125 551.625 C272.92273353 555.19525869 268.72172307 558.92882505 264.54296875 562.7421875 C261.86222776 565.12232313 259.10495866 567.37731841 256.3125 569.625 C252.57540409 572.6482686 249.11003908 575.75465356 245.78149414 579.21801758 C244.01017562 580.98982159 242.17608557 582.62785032 240.27734375 584.26171875 C236.18545952 587.81849239 232.20122305 591.47562611 228.25 595.1875 C227.55970703 595.83460938 226.86941406 596.48171875 226.15820312 597.1484375 C221.3514268 601.67507793 216.65906389 606.29974 212.02099609 610.99829102 C208.80412957 614.24226907 205.46701545 617.26467079 201.99609375 620.23046875 C196.57157528 625.03928845 191.44516902 630.22696743 186.75 635.75 C183.36967912 639.70980446 179.69755873 643.34042166 176 647 C171.80556905 651.15583022 167.71006131 655.31319967 163.89453125 659.82421875 C161.21918072 662.89673472 158.4140347 665.84336159 155.625 668.8125 C150.91950366 673.83788461 146.47149137 678.98974394 142.16796875 684.3671875 C139.90967537 687.10969154 137.54218666 689.7093759 135.125 692.3125 C130.86022002 696.94698227 126.95279187 701.76873955 123.1015625 706.74414062 C120.18780799 710.50501196 117.19979936 714.18045545 114.125 717.8125 C108.44524674 724.58348145 103.10167665 731.59607727 97.77685547 738.64794922 C95.92984173 741.09286957 94.07620097 743.53268465 92.22265625 745.97265625 C84.52651009 756.13340859 77.10056291 766.41602192 70 777 C69.00395752 778.47581543 69.00395752 778.47581543 67.98779297 779.98144531 C42.72334344 817.42886222 17.53934096 856.76811582 1 899 C0.67 899 0.34 899 0 899 C0 602.33 0 305.66 0 0 Z " fill="#FFFFFF" transform="translate(930,707)"/>
<path d="M0 0 C3.81217136 1.52486855 6.75149976 2.951515 10.17578125 5.08984375 C11.16046387 5.70359863 12.14514648 6.31735352 13.15966797 6.94970703 C14.20010254 7.60567871 15.24053711 8.26165039 16.3125 8.9375 C17.38902832 9.61409668 18.46555664 10.29069336 19.57470703 10.98779297 C28.20834181 16.44272148 36.68499804 22.07200035 45 28 C45.69722168 28.49677246 46.39444336 28.99354492 47.11279297 29.50537109 C52.43154449 33.30549309 57.71899986 37.14766559 63 41 C63.79374023 41.57685547 64.58748047 42.15371094 65.40527344 42.74804688 C75.54882926 50.12443741 85.49132173 57.68031681 95.23242188 65.57958984 C97.57100598 67.45885536 99.93952977 69.29805838 102.30932617 71.13769531 C109.47303541 76.70425951 116.38256894 82.52395929 123.23242188 88.47070312 C125.02860347 90.02474753 126.83305802 91.56859331 128.640625 93.109375 C135.52029067 98.9739473 142.31077588 104.91788368 149 111 C150.70728787 112.54282436 152.41562707 114.0844861 154.125 115.625 C154.87007812 116.29789063 155.61515625 116.97078125 156.3828125 117.6640625 C158.5085609 119.56137227 160.65015137 121.43585343 162.80078125 123.3046875 C166.97182886 126.94922582 171.02863941 130.70480623 175.0625 134.5 C176.06506836 135.43779297 176.06506836 135.43779297 177.08789062 136.39453125 C180.27864651 139.38993474 183.42539524 142.41269419 186.49609375 145.53125 C188.8118135 147.86825131 191.19226785 150.06279532 193.69335938 152.19946289 C198.11601894 156.0487977 202.27130778 160.12692678 206.41015625 164.27734375 C207.18129257 165.04752335 207.95242889 165.81770294 208.74693298 166.61122131 C210.36580153 168.22941373 211.98342551 169.84885212 213.59985352 171.46948242 C216.05568718 173.93067232 218.51681365 176.38647809 220.97851562 178.84179688 C222.56021653 180.42415867 224.14160717 182.00683067 225.72265625 183.58984375 C226.44888687 184.31405014 227.17511749 185.03825653 227.9233551 185.78440857 C231.95141012 189.83074863 235.80776867 193.97006353 239.52476501 198.30458069 C241.41588919 200.47796221 243.43282463 202.49453136 245.5 204.5 C248.99756225 207.94393693 252.25277875 211.5033345 255.39453125 215.2734375 C257.11365309 217.12222547 258.9422984 218.54487913 261 220 C261.51949219 219.48050781 262.03898437 218.96101562 262.57421875 218.42578125 C269 212 269 212 271.203125 209.79907227 C273.83495591 207.16517375 276.46199852 204.52660852 279.08772278 201.8866272 C281.78407398 199.17678937 284.48316964 196.46969178 287.18237305 193.76269531 C288.59799159 192.34204706 290.01271144 190.9205027 291.42651367 189.49804688 C293.48635431 187.42596386 295.54950788 185.35722771 297.61328125 183.2890625 C298.23439285 182.66278961 298.85550446 182.03651672 299.49543762 181.39126587 C303.29459717 177.59163115 307.21515693 173.99143101 311.28996277 170.48861694 C313.29068355 168.74695495 315.15788541 166.9079044 317 165 C319.47713913 162.43439162 322.05879246 160.05515968 324.75 157.71875 C328.93544371 154.08361463 332.97585255 150.31193655 337 146.5 C341.63962703 142.10504081 346.33014182 137.79727556 351.15625 133.60742188 C353.63913519 131.44278786 356.0706794 129.22443814 358.5 127 C364.00899075 121.98086479 369.58723517 117.05879564 375.25390625 112.21875 C376.46097313 111.1875417 377.66800337 110.15629052 378.875 109.125 C379.48359863 108.60526611 380.09219727 108.08553223 380.71923828 107.55004883 C384.25642957 104.52094405 387.74401054 101.44843697 391.1875 98.3125 C395.32427804 94.55850824 399.60721231 91.02853544 403.94921875 87.515625 C407.52056748 84.57074845 411.01208792 81.54276802 414.5 78.5 C419.68268182 73.98196448 424.92474614 69.56072986 430.26953125 65.234375 C433.31966808 62.73841181 436.31578405 60.1845269 439.3125 57.625 C444.36216753 53.32053779 449.52996731 49.19651954 454.76879883 45.12548828 C458.76212789 42.00893254 462.65262792 38.79457192 466.5 35.5 C472.60243132 30.28072996 478.88086181 25.31469564 485.22070312 20.38818359 C487.02344643 18.98170741 488.81756507 17.56490382 490.609375 16.14453125 C510.9899435 0 510.9899435 0 513 0 C513 290.4 513 580.8 513 880 C511.12724728 877.19087092 510.25246312 875.07374529 509.22265625 871.8984375 C508.87992676 870.86356201 508.53719727 869.82868652 508.18408203 868.76245117 C507.81395996 867.64459229 507.44383789 866.5267334 507.0625 865.375 C491.65982046 820.00934472 466.34481679 779.61235814 437.33642578 741.74511719 C436.05061623 740.06609514 434.77256154 738.3814421 433.49609375 736.6953125 C420.2696383 719.28665184 406.48468926 701.48468926 391 686 C390.89677573 683.73799388 390.86597623 681.47269033 390.8613348 679.20833492 C390.85849258 678.48624552 390.85565036 677.76415611 390.85272202 677.0201852 C390.84431622 674.56983702 390.84310224 672.11953574 390.84178162 669.66917419 C390.83722026 667.90702023 390.83222088 666.14486735 390.82681805 664.38271576 C390.81317892 659.51650548 390.80580197 654.65030221 390.79939139 649.78407776 C390.79141268 644.54545584 390.77770627 639.30684866 390.76467896 634.0682373 C390.74288017 624.98403317 390.72474818 615.89982757 390.70907402 606.81561089 C390.68640628 593.68119549 390.65825923 580.54679638 390.62875474 567.41239477 C390.58104076 546.10509653 390.53778694 524.79779165 390.49731445 503.49047852 C390.45797886 482.78669721 390.41655731 462.08292182 390.37231445 441.37915039 C390.36959018 440.103966 390.36686591 438.82878161 390.36405908 437.51495527 C390.35037992 431.11802741 390.33665959 424.72109963 390.32291877 418.3241719 C390.20889423 365.21612693 390.10209814 312.10806915 390 259 C389.46528076 259.54052002 388.93056152 260.08104004 388.37963867 260.63793945 C387.31579956 261.70854614 387.31579956 261.70854614 386.23046875 262.80078125 C385.53074951 263.50630127 384.83103027 264.21182129 384.11010742 264.9387207 C382.2336425 266.77176402 380.31597378 268.49596494 378.3125 270.1875 C370.2589395 277.12693157 362.67458463 284.81843494 355.796875 292.921875 C353.93030536 295.08060336 352.00154876 297.1750148 350.05981445 299.26611328 C345.34907948 304.3431586 340.83398131 309.51776613 336.4921875 314.91796875 C334.62130916 317.23164118 332.73268121 319.52186579 330.8203125 321.80078125 C322.71973002 331.47838715 315.09457356 341.42115421 307.70263672 351.64892578 C306.05213236 353.92801339 304.3892455 356.19750139 302.72265625 358.46484375 C290.0297909 375.79283043 278.36591916 393.78153561 267 412 C266.05347378 413.51437815 265.10686287 415.02870337 264.16015625 416.54296875 C263.44007508 417.69529433 262.72001157 418.84763093 262 420 C258.213393 418.73779767 257.79427284 417.52750573 255.6875 414.1875 C231.67541677 377.13777743 204.23602284 341.59591571 174.08203125 309.328125 C171.64728822 306.72151295 169.27827164 304.06174036 166.91015625 301.39453125 C161.8601248 295.77447954 156.58579902 290.3996889 151.24414062 285.05883789 C149.6285932 283.44109808 148.02124966 281.81549364 146.4140625 280.18945312 C140.61473338 274.35990187 134.71719896 268.92361267 128.25537109 263.82446289 C126 262 126 262 123 259 C122.67 391.99 122.34 524.98 122 662 C118.51520421 658.51520421 115.2128237 655.04059605 111.9375 651.375 C81.46648235 617.97457097 39.30551122 596.16450604 0 575 C0 385.25 0 195.5 0 0 Z " fill="#FFFFFF" transform="translate(1707,707)"/>
<path d="M0 0 C163.35 0 326.7 0 495 0 C495 38.28 495 76.56 495 116 C435.93 116 376.86 116 316 116 C316 316.97 316 517.94 316 725 C302.635 726.485 302.635 726.485 289 728 C284.40970998 728.7792159 280.00428245 729.55858562 275.5 730.625 C274.40872803 730.87660889 273.31745605 731.12821777 272.19311523 731.38745117 C246.07514112 737.65419687 221.82829745 747.60733185 198.67553711 761.11132812 C197 762 197 762 194 763 C194 549.49 194 335.98 194 116 C129.98 116 65.96 116 0 116 C0 77.72 0 39.44 0 0 Z " fill="#FFFFFF" transform="translate(1334,551)"/>
<path d="M0 0 C4.43118719 2.13646525 7.2290203 4.37577522 9 9 C9.63211292 14.10372656 10.01503086 19.13357598 7.1875 23.625 C5 26 5 26 2 27 C7.34551954 35.70802377 12.82709169 44.30718922 18.51953125 52.79296875 C23.27133907 59.89859729 28.00023877 67.01824759 32.69140625 74.1640625 C33.81656724 75.87719843 34.94173003 77.59033318 36.06689453 79.3034668 C36.63555237 80.16934418 37.20421021 81.03522156 37.7901001 81.92733765 C48.88521108 98.8145329 60.09953287 115.61542037 71.42602539 132.34817505 C83.25317995 149.82621947 94.87445151 167.43519174 106.44775391 185.08201599 C111.9204655 193.41778924 117.45714333 201.71076641 123 210 C128.21817449 207.16571413 133.2991701 204.25562649 138.22265625 200.92578125 C138.7660112 200.56030685 139.30936615 200.19483246 139.8691864 199.81828308 C141.01503006 199.0474376 142.15990416 198.27514904 143.30383301 197.50146484 C146.29696593 195.47792665 149.29828023 193.46663457 152.30078125 191.45703125 C152.88721405 191.06448151 153.47364685 190.67193176 154.07785034 190.26748657 C158.58398391 187.25943898 163.1371909 184.34109918 167.75 181.5 C173.27848692 178.09488145 178.70542661 174.56915684 184.09472656 170.94799805 C189.19930299 167.52186439 194.34225503 164.15799613 199.5 160.8125 C200.33845459 160.26859619 201.17690918 159.72469238 202.04077148 159.16430664 C203.79066306 158.02925518 205.54058227 156.89424632 207.29052734 155.75927734 C211.96905684 152.72147923 216.64070064 149.67313424 221.3125 146.625 C222.27003174 146.00036865 223.22756348 145.3757373 224.21411133 144.73217773 C227.14283072 142.82158948 230.07143409 140.91082351 233 139 C236.89570655 136.45813893 240.79153909 133.91647118 244.6875 131.375 C245.63794189 130.75488037 246.58838379 130.13476074 247.56762695 129.49584961 C252.16286486 126.49861306 256.76031864 123.50489338 261.36328125 120.51953125 C262.22107178 119.96305908 263.0788623 119.40658691 263.96264648 118.83325195 C265.62982936 117.75190107 267.29730112 116.67099543 268.96508789 115.59057617 C272.83323974 113.07956023 276.68565454 110.54933665 280.5078125 107.96875 C281.55485352 107.26262573 281.55485352 107.26262573 282.62304688 106.54223633 C283.92152858 105.66354426 285.21728344 104.78080382 286.50976562 103.89331055 C290.7813927 101 290.7813927 101 293 101 C292.67773438 100.28714844 292.35546875 99.57429688 292.0234375 98.83984375 C290.36786958 94.24595872 290.42685831 89.81863565 291 85 C293.13646525 80.56881281 295.37577522 77.7709797 300 76 C305.34488104 75.33801932 309.60348339 75.32667949 314.5 77.6875 C318.89443074 81.75234844 320.18657624 84.46389573 320.4375 90.4375 C320.29099091 95.38551157 319.44763149 98.27283083 316 102 C311.51195547 105.96003929 306.63991768 105.24548961 301 105 C300.83949661 105.6240271 300.67899323 106.2480542 300.5136261 106.89099121 C298.39042939 114.92578634 295.81946107 122.7829906 293.16796875 130.65625 C292.69439943 132.07031118 292.2211456 133.48447805 291.7481842 134.89874268 C290.74821109 137.88741311 289.74657233 140.87551734 288.74353027 143.86315918 C286.12222603 151.67186265 283.51240735 159.48440871 280.90234375 167.296875 C280.64419514 168.06927773 280.38604652 168.84168045 280.12007523 169.63748932 C275.26369848 184.17072096 270.48325424 198.72761613 265.77807617 213.31054688 C260.62793855 229.24570917 255.29698154 245.10905537 250 261 C82.03 261 -85.94 261 -259 261 C-285.19425676 182.41722973 -285.19425676 182.41722973 -293.86328125 155.62109375 C-296.11418806 148.68348509 -298.40840678 141.7617524 -300.73046875 134.84765625 C-301.03798569 133.93100693 -301.34550262 133.0143576 -301.66233826 132.06993103 C-303.13272154 127.68954387 -304.60833432 123.31102921 -306.0925293 118.93530273 C-306.61130352 117.394415 -307.12994721 115.8534833 -307.6484375 114.3125 C-307.88825851 113.61169815 -308.12807953 112.9108963 -308.37516785 112.18885803 C-309.33525555 109.32379066 -310 107.0454482 -310 104 C-310.72445313 104.04640625 -311.44890625 104.0928125 -312.1953125 104.140625 C-318.32855863 104.36959952 -322.27231273 104.37311072 -327 100 C-330.60057274 96.03936999 -330.50330882 91.78504341 -330.3515625 86.66015625 C-329.71571586 81.8489167 -327.41661708 79.28783371 -323.9375 76.125 C-319.31242228 74.35369364 -314.88371757 74.35457477 -310 75 C-305.56881281 77.13646525 -302.7709797 79.37577522 -301 84 C-300.55413168 89.47427211 -300.7958488 94.63958496 -302 100 C-301.00484375 100.64324219 -300.0096875 101.28648437 -298.984375 101.94921875 C-280.93523479 113.61956396 -262.92413974 125.34803839 -244.92333984 137.09277344 C-240.11598019 140.22916008 -235.30796012 143.36453396 -230.5 146.5 C-228.58333009 147.74999503 -226.66666343 148.99999504 -224.75 150.25 C-223.326875 151.178125 -223.326875 151.178125 -221.875 152.125 C-190.25 172.75 -190.25 172.75 -187.37353516 174.62597656 C-185.46177722 175.87276109 -183.54999347 177.11950605 -181.63818359 178.36621094 C-176.77119822 181.54007936 -171.90469874 184.71468863 -167.0390625 187.890625 C-155.70863971 195.28520693 -144.36667254 202.661249 -133 210 C-130.25807757 207.39706733 -128.11322094 204.86597733 -126.12890625 201.65234375 C-125.57050049 200.7605542 -125.01209473 199.86876465 -124.43676758 198.94995117 C-123.81825928 197.95584229 -123.19975098 196.9617334 -122.5625 195.9375 C-115.04684782 184.02665665 -107.21358718 172.34540633 -99.3125 160.6875 C-87.84184015 143.75253124 -76.51955185 126.72634266 -65.28710938 109.63256836 C-64.10031034 107.82662735 -62.91346211 106.02071866 -61.7265625 104.21484375 C-60.86547882 102.90458473 -60.86547882 102.90458473 -59.98699951 101.56785583 C-54.22714901 92.81110343 -48.4003354 84.09964398 -42.56759644 75.39135742 C-37.71035839 68.13466065 -32.94177526 60.84026252 -28.40014648 53.38110352 C-24.8121785 47.5460925 -20.81904079 42.00309635 -16.75585938 36.4909668 C-16.02206055 35.48030151 -16.02206055 35.48030151 -15.2734375 34.44921875 C-14.83435059 33.85455811 -14.39526367 33.25989746 -13.94287109 32.6472168 C-12.75161199 30.88239065 -12.75161199 30.88239065 -13 28 C-14.65385233 26.65080468 -16.321702 25.31866272 -18 24 C-20.94414452 19.3720468 -20.6213451 14.29293976 -20 9 C-15.72532694 0.13401143 -9.20717828 -1.2168077 0 0 Z " fill="#FFFFFF" transform="translate(1595,253)"/>
<path d="M0 0 C4.43118719 2.13646525 7.2290203 4.37577522 9 9 C9.63233147 14.10549109 10.04841057 19.11716408 7.125 23.5625 C5.79788638 25.08477739 4.42803344 26.57196656 3 28 C3.46148438 28.62003906 3.92296875 29.24007813 4.3984375 29.87890625 C8.64883419 35.64970176 12.71562853 41.51009143 16.66918945 47.48706055 C20.75134325 53.6498397 24.9024379 59.76459985 29.0625 65.875 C30.14301636 67.46296387 30.14301636 67.46296387 31.24536133 69.08300781 C34.65198521 74.0878333 38.0612738 79.0908206 41.47502136 84.09078979 C42.62119093 85.76994693 43.76664472 87.44959001 44.91186523 89.12939453 C46.34090924 91.22511555 47.77131354 93.31990994 49.20336914 95.41357422 C53.59926986 101.86276305 57.84936132 108.39032198 62 115 C55.69811247 124.21713077 49.34265025 133.3923486 42.88574219 142.50170898 C42.4065332 143.17790283 41.92732422 143.85409668 41.43359375 144.55078125 C40.80022095 145.44277222 40.80022095 145.44277222 40.15405273 146.3527832 C39.07981721 147.88607432 38.03848464 149.44227304 37 151 C32.47550444 149.43936439 28.71586173 146.97684787 24.78515625 144.30859375 C24.09296494 143.84445572 23.40077362 143.38031769 22.68760681 142.90211487 C20.47627393 141.41826458 18.26921352 139.92820927 16.0625 138.4375 C13.89518819 136.97831737 11.72698665 135.52050494 9.55697632 134.06533813 C8.12795941 133.10398619 6.70249328 132.13733458 5.28067017 131.16537476 C1.86083479 128.8413611 -1.55815463 126.64761329 -5.18798828 124.66455078 C-5.84271622 124.29250015 -6.49744415 123.92044952 -7.17201233 123.53712463 C-8.94383729 122.54152829 -10.7399243 121.58945966 -12.53735352 120.64086914 C-15.29460384 117.68407557 -15.39560514 117.14560432 -15.47802734 113.29052734 C-15.36077979 111.19091041 -15.1961459 109.09372039 -15 107 C-14.89213669 105.74241379 -14.78427338 104.48482758 -14.67314148 103.18913269 C-14.26764709 98.745935 -13.77759189 94.31316229 -13.28515625 89.87890625 C-13.10775579 88.24515918 -12.93079728 86.61136407 -12.7542572 84.9775238 C-12.38546178 81.57583435 -12.01277083 78.17460338 -11.63696289 74.77368164 C-11.15573727 70.41769487 -10.68223452 66.06091205 -10.21134281 61.70379734 C-9.84730649 58.33983035 -9.48032414 54.97619024 -9.1123333 51.61265373 C-8.93665659 50.00557523 -8.76163872 48.39842456 -8.58729744 46.79120064 C-8.34366182 44.55131478 -8.09632689 42.31186867 -7.84790039 40.07250977 C-7.70800186 38.79996841 -7.56810333 37.52742706 -7.42396545 36.21632385 C-7.09526551 33.72271159 -6.69176629 31.4110399 -6 29 C-7.5778125 28.87625 -7.5778125 28.87625 -9.1875 28.75 C-13.34583134 27.9319676 -15.03734506 26.96265494 -18 24 C-20.89711591 19.31378795 -20.6262439 14.33467023 -20 9 C-15.72532694 0.13401143 -9.20717828 -1.2168077 0 0 Z " fill="#FFFFFF" transform="translate(1421,291)"/>
<path d="M0 0 C4.43118719 2.13646525 7.2290203 4.37577522 9 9 C9.66198068 14.34488104 9.67332051 18.60348339 7.3125 23.5 C4.9774567 26.02437113 3.13096636 27.59106514 0 29 C-1.32 29 -2.64 29 -4 29 C-3.87565582 29.76323578 -3.75131165 30.52647156 -3.62319946 31.31283569 C-2.26104891 39.88643794 -1.20531985 48.47187912 -0.2734375 57.1015625 C-0.1194374 58.5139556 0.03464765 59.92633944 0.18881226 61.3387146 C0.50849023 64.27474205 0.82579101 67.21101511 1.14160156 70.14746094 C1.54350033 73.88074684 1.9535117 77.61309319 2.36556435 81.34527016 C2.68533836 84.25331573 2.99969615 87.16192893 3.312603 90.07072067 C3.46140533 91.44621671 3.61206759 92.82151305 3.76475906 94.19658279 C6.22550728 116.41968669 6.22550728 116.41968669 3.10180664 120.44775391 C2.21356201 120.95226074 1.32531738 121.45676758 0.41015625 121.9765625 C-0.59072021 122.57662109 -1.59159668 123.17667969 -2.62280273 123.79492188 C-3.71665283 124.39884766 -4.81050293 125.00277344 -5.9375 125.625 C-7.63619148 126.63093867 -9.33481725 127.63701153 -11.02919006 128.65020752 C-12.20550445 129.35187988 -13.38471141 130.04872374 -14.56663513 130.74090576 C-21.24615792 134.6678373 -27.58074749 139.0766587 -33.9375 143.5 C-36.0269884 144.95218428 -38.11919173 146.40047471 -40.21484375 147.84375 C-41.09261475 148.45412109 -41.97038574 149.06449219 -42.87475586 149.69335938 C-45 151 -45 151 -47 151 C-48.33764648 149.41796875 -48.33764648 149.41796875 -49.87109375 147.1875 C-50.44069824 146.36604492 -51.01030273 145.54458984 -51.59716797 144.69824219 C-52.20447754 143.80782227 -52.81178711 142.91740234 -53.4375 142 C-54.0577002 141.1018457 -54.67790039 140.20369141 -55.31689453 139.27832031 C-57.21749404 136.52310841 -59.10904418 133.76183638 -61 131 C-62.12305121 129.36934608 -63.24671032 127.7391106 -64.37109375 126.109375 C-66.92100514 122.4109748 -69.46293417 118.70722273 -72 115 C-67.195522 107.34911659 -62.22509534 99.83151775 -57.125 92.375 C-56.00039054 90.7254415 -54.8757831 89.07588161 -53.751297 87.42623901 C-52.21203705 85.16884778 -50.67136329 82.91242324 -49.13067627 80.65600586 C-36.97079238 62.84645284 -24.93028028 44.96388839 -13 27 C-13.62390625 26.70996094 -14.2478125 26.41992188 -14.890625 26.12109375 C-17.95396874 24.49298328 -18.67847347 23.23773999 -20 20 C-20.6753961 14.66192963 -20.66979556 10.3892056 -18.3125 5.5 C-12.87841695 -0.37468438 -7.7986492 -1.03065848 0 0 Z " fill="#FFFFFF" transform="translate(1770,291)"/>
</svg>
